<?xml version="1.0" encoding="utf-8"?>
<svg viewBox="0 0 512 512" xmlns="http://www.w3.org/2000/svg" xmlns:bx="https://boxy-svg.com">
  <defs>
    <linearGradient id="gradient-1" bx:pinned="true">
      <stop offset="0.125" style="stop-color: rgba(255, 255, 255, 0.68);"/>
      <stop offset="0.364" style="stop-color: rgba(187, 187, 187, 0.87);"/>
      <stop offset="0.391" style="stop-color: rgb(255, 255, 255);"/>
    </linearGradient>
  </defs>
  <path d="M 215.811 71.05 L 129.522 160 L 30.539 160 C 17.679 160 7.262 170.74 7.262 184 L 7.262 328 C 7.262 341.25 17.679 352 30.539 352 L 129.522 352 L 215.811 440.95 C 230.388 455.98 255.546 445.42 255.546 423.98 L 255.546 88.02 C 255.546 66.56 230.368 56.04 215.811 71.05 Z M 454.988 256 L 499.252 210.36 C 505.363 204.06 505.363 193.84 499.252 187.54 L 477.12 164.72 C 471.01 158.42 461.098 158.42 454.988 164.72 L 410.724 210.36 L 366.459 164.72 C 360.35 158.42 350.437 158.42 344.327 164.72 L 322.195 187.54 C 316.085 193.84 316.085 204.06 322.195 210.36 L 366.459 256 L 322.204 301.63 C 316.095 307.93 316.095 318.15 322.204 324.45 L 344.337 347.27 C 350.447 353.57 360.358 353.57 366.469 347.27 L 410.724 301.64 L 454.988 347.28 C 461.098 353.58 471.01 353.58 477.12 347.28 L 499.252 324.46 C 505.363 318.16 505.363 307.94 499.252 301.64 L 454.988 256 Z" style="paint-order: stroke; stroke-width: 14px; stroke: rgb(255, 255, 255);"/>
</svg>